<svg version="1.2" xmlns="http://www.w3.org/2000/svg" viewBox="0 0 1200 848" width="1200" height="848">
	<defs>
		<linearGradient id="g1" x2="1" gradientUnits="userSpaceOnUse" gradientTransform="matrix(69.642,73.694,-64.603,61.051,153.836,48.476)">
			<stop offset="0" stop-color="#faec66"/>
			<stop offset="1" stop-color="#f1911f"/>
		</linearGradient>
		<linearGradient id="g2" x2="1" gradientUnits="userSpaceOnUse" gradientTransform="matrix(-91.193,66.527,-40.233,-55.15,263.007,-13.047)">
			<stop offset="0" stop-color="#faec66" stop-opacity=".64"/>
			<stop offset="1" stop-color="#f1b31a" stop-opacity="1"/>
		</linearGradient>
		<linearGradient id="g3" x2="1" gradientUnits="userSpaceOnUse" gradientTransform="matrix(24.207,25.615,-22.455,21.221,503.248,176.193)">
			<stop offset="0" stop-color="#faec66"/>
			<stop offset="1" stop-color="#f1911f"/>
		</linearGradient>
		<linearGradient id="g4" x2="1" gradientUnits="userSpaceOnUse" gradientTransform="matrix(-31.698,23.124,-13.985,-19.17,541.195,154.807)">
			<stop offset="0" stop-color="#faec66" stop-opacity=".64"/>
			<stop offset="1" stop-color="#f1b31a" stop-opacity="1"/>
		</linearGradient>
		<linearGradient id="g5" x2="1" gradientUnits="userSpaceOnUse" gradientTransform="matrix(24.207,25.615,-22.455,21.221,503.486,242.812)">
			<stop offset="0" stop-color="#faec66"/>
			<stop offset="1" stop-color="#f1911f"/>
		</linearGradient>
		<linearGradient id="g6" x2="1" gradientUnits="userSpaceOnUse" gradientTransform="matrix(-31.698,23.124,-13.985,-19.17,541.433,221.427)">
			<stop offset="0" stop-color="#faec66" stop-opacity=".64"/>
			<stop offset="1" stop-color="#f1b31a" stop-opacity="1"/>
		</linearGradient>
		<linearGradient id="g7" x2="1" gradientUnits="userSpaceOnUse" gradientTransform="matrix(24.207,25.616,-22.456,21.221,704.839,361.223)">
			<stop offset="0" stop-color="#faec66"/>
			<stop offset="1" stop-color="#f1911f"/>
		</linearGradient>
		<linearGradient id="g8" x2="1" gradientUnits="userSpaceOnUse" gradientTransform="matrix(-31.698,23.124,-13.985,-19.17,742.786,339.838)">
			<stop offset="0" stop-color="#faec66" stop-opacity=".64"/>
			<stop offset="1" stop-color="#f1b31a" stop-opacity="1"/>
		</linearGradient>
		<linearGradient id="g9" x2="1" gradientUnits="userSpaceOnUse" gradientTransform="matrix(24.207,25.616,-22.456,21.221,698.839,673.223)">
			<stop offset="0" stop-color="#faec66"/>
			<stop offset="1" stop-color="#f1911f"/>
		</linearGradient>
		<linearGradient id="g10" x2="1" gradientUnits="userSpaceOnUse" gradientTransform="matrix(-31.698,23.124,-13.985,-19.17,736.786,651.838)">
			<stop offset="0" stop-color="#faec66" stop-opacity=".64"/>
			<stop offset="1" stop-color="#f1b31a" stop-opacity="1"/>
		</linearGradient>
		<linearGradient id="g11" x2="1" gradientUnits="userSpaceOnUse" gradientTransform="matrix(24.207,25.615,-22.455,21.221,325.939,98.449)">
			<stop offset="0" stop-color="#faec66"/>
			<stop offset="1" stop-color="#f1911f"/>
		</linearGradient>
		<linearGradient id="g12" x2="1" gradientUnits="userSpaceOnUse" gradientTransform="matrix(-31.698,23.124,-13.985,-19.17,363.886,77.064)">
			<stop offset="0" stop-color="#faec66" stop-opacity=".64"/>
			<stop offset="1" stop-color="#f1b31a" stop-opacity="1"/>
		</linearGradient>
		<linearGradient id="g13" x2="1" gradientUnits="userSpaceOnUse" gradientTransform="matrix(24.207,25.615,-22.455,21.221,326.472,140.383)">
			<stop offset="0" stop-color="#faec66"/>
			<stop offset="1" stop-color="#f1911f"/>
		</linearGradient>
		<linearGradient id="g14" x2="1" gradientUnits="userSpaceOnUse" gradientTransform="matrix(-31.698,23.124,-13.985,-19.17,364.419,118.998)">
			<stop offset="0" stop-color="#faec66" stop-opacity=".64"/>
			<stop offset="1" stop-color="#f1b31a" stop-opacity="1"/>
		</linearGradient>
		<linearGradient id="g15" x2="1" gradientUnits="userSpaceOnUse" gradientTransform="matrix(24.207,25.615,-22.455,21.221,325.929,179.886)">
			<stop offset="0" stop-color="#faec66"/>
			<stop offset="1" stop-color="#f1911f"/>
		</linearGradient>
		<linearGradient id="g16" x2="1" gradientUnits="userSpaceOnUse" gradientTransform="matrix(-31.698,23.124,-13.985,-19.17,363.876,158.501)">
			<stop offset="0" stop-color="#faec66" stop-opacity=".64"/>
			<stop offset="1" stop-color="#f1b31a" stop-opacity="1"/>
		</linearGradient>
		<linearGradient id="g17" x2="1" gradientUnits="userSpaceOnUse" gradientTransform="matrix(24.207,25.615,-22.455,21.221,325.929,218.904)">
			<stop offset="0" stop-color="#faec66"/>
			<stop offset="1" stop-color="#f1911f"/>
		</linearGradient>
		<linearGradient id="g18" x2="1" gradientUnits="userSpaceOnUse" gradientTransform="matrix(-31.698,23.124,-13.985,-19.17,363.876,197.519)">
			<stop offset="0" stop-color="#faec66" stop-opacity=".64"/>
			<stop offset="1" stop-color="#f1b31a" stop-opacity="1"/>
		</linearGradient>
		<linearGradient id="g19" x2="1" gradientUnits="userSpaceOnUse" gradientTransform="matrix(24.207,25.616,-22.456,21.221,326.25,259.783)">
			<stop offset="0" stop-color="#faec66"/>
			<stop offset="1" stop-color="#f1911f"/>
		</linearGradient>
		<linearGradient id="g20" x2="1" gradientUnits="userSpaceOnUse" gradientTransform="matrix(-31.698,23.124,-13.985,-19.17,364.197,238.398)">
			<stop offset="0" stop-color="#faec66" stop-opacity=".64"/>
			<stop offset="1" stop-color="#f1b31a" stop-opacity="1"/>
		</linearGradient>
		<linearGradient id="g21" x2="1" gradientUnits="userSpaceOnUse" gradientTransform="matrix(24.207,25.615,-22.455,21.221,325.632,297.743)">
			<stop offset="0" stop-color="#faec66"/>
			<stop offset="1" stop-color="#f1911f"/>
		</linearGradient>
		<linearGradient id="g22" x2="1" gradientUnits="userSpaceOnUse" gradientTransform="matrix(-31.698,23.124,-13.985,-19.17,363.579,276.358)">
			<stop offset="0" stop-color="#faec66" stop-opacity=".64"/>
			<stop offset="1" stop-color="#f1b31a" stop-opacity="1"/>
		</linearGradient>
		<linearGradient id="g23" x2="1" gradientUnits="userSpaceOnUse" gradientTransform="matrix(24.207,25.615,-22.455,21.221,326.472,337.544)">
			<stop offset="0" stop-color="#faec66"/>
			<stop offset="1" stop-color="#f1911f"/>
		</linearGradient>
		<linearGradient id="g24" x2="1" gradientUnits="userSpaceOnUse" gradientTransform="matrix(-31.698,23.124,-13.985,-19.17,364.419,316.159)">
			<stop offset="0" stop-color="#faec66" stop-opacity=".64"/>
			<stop offset="1" stop-color="#f1b31a" stop-opacity="1"/>
		</linearGradient>
		<linearGradient id="g25" x2="1" gradientUnits="userSpaceOnUse" gradientTransform="matrix(24.207,25.616,-22.456,21.221,325.46,377.344)">
			<stop offset="0" stop-color="#faec66"/>
			<stop offset="1" stop-color="#f1911f"/>
		</linearGradient>
		<linearGradient id="g26" x2="1" gradientUnits="userSpaceOnUse" gradientTransform="matrix(-31.698,23.124,-13.985,-19.17,363.407,355.959)">
			<stop offset="0" stop-color="#faec66" stop-opacity=".64"/>
			<stop offset="1" stop-color="#f1b31a" stop-opacity="1"/>
		</linearGradient>
		<linearGradient id="g27" x2="1" gradientUnits="userSpaceOnUse" gradientTransform="matrix(24.207,25.615,-22.455,21.221,325.547,417.145)">
			<stop offset="0" stop-color="#faec66"/>
			<stop offset="1" stop-color="#f1911f"/>
		</linearGradient>
		<linearGradient id="g28" x2="1" gradientUnits="userSpaceOnUse" gradientTransform="matrix(-31.698,23.124,-13.985,-19.17,363.494,395.76)">
			<stop offset="0" stop-color="#faec66" stop-opacity=".64"/>
			<stop offset="1" stop-color="#f1b31a" stop-opacity="1"/>
		</linearGradient>
		<linearGradient id="g29" x2="1" gradientUnits="userSpaceOnUse" gradientTransform="matrix(24.207,25.615,-22.455,21.221,324.534,456.945)">
			<stop offset="0" stop-color="#faec66"/>
			<stop offset="1" stop-color="#f1911f"/>
		</linearGradient>
		<linearGradient id="g30" x2="1" gradientUnits="userSpaceOnUse" gradientTransform="matrix(-31.698,23.124,-13.985,-19.17,362.481,435.56)">
			<stop offset="0" stop-color="#faec66" stop-opacity=".64"/>
			<stop offset="1" stop-color="#f1b31a" stop-opacity="1"/>
		</linearGradient>
		<linearGradient id="g31" x2="1" gradientUnits="userSpaceOnUse" gradientTransform="matrix(24.207,25.615,-22.455,21.221,323.102,491.612)">
			<stop offset="0" stop-color="#faec66"/>
			<stop offset="1" stop-color="#f1911f"/>
		</linearGradient>
		<linearGradient id="g32" x2="1" gradientUnits="userSpaceOnUse" gradientTransform="matrix(-31.698,23.124,-13.985,-19.17,361.049,470.227)">
			<stop offset="0" stop-color="#faec66" stop-opacity=".64"/>
			<stop offset="1" stop-color="#f1b31a" stop-opacity="1"/>
		</linearGradient>
		<linearGradient id="g33" x2="1" gradientUnits="userSpaceOnUse" gradientTransform="matrix(24.207,25.616,-22.456,21.221,503.176,529.764)">
			<stop offset="0" stop-color="#faec66"/>
			<stop offset="1" stop-color="#f1911f"/>
		</linearGradient>
		<linearGradient id="g34" x2="1" gradientUnits="userSpaceOnUse" gradientTransform="matrix(-31.698,23.124,-13.985,-19.17,541.123,508.379)">
			<stop offset="0" stop-color="#faec66" stop-opacity=".64"/>
			<stop offset="1" stop-color="#f1b31a" stop-opacity="1"/>
		</linearGradient>
	</defs>
	<style>
		tspan { white-space:pre } 
		.s0 { fill: url(#g1);stroke: #997c2d;stroke-width: 3 } 
		.s1 { fill: url(#g2);stroke: #997c2d;stroke-width: 3 } 
		.t2 { font-size: 20px;fill: #2c2e35;font-weight: bold;font-family: "Cambria" } 
		.s3 { fill: url(#g3);stroke: #997c2d;stroke-width: 2 } 
		.s4 { fill: url(#g4);stroke: #997c2d;stroke-width: 2 } 
		.s5 { fill: none;stroke: #a6a9ab;stroke-width: 3 } 
		.s6 { fill: none;stroke: #a6a9ab;stroke-width: .8 } 
		.s7 { fill: none;stroke: #a6a9ab;stroke-width: 2 } 
		.s8 { fill: url(#g5);stroke: #997c2d;stroke-width: 2 } 
		.s9 { fill: url(#g6);stroke: #997c2d;stroke-width: 2 } 
		.s10 { fill: url(#g7);stroke: #997c2d;stroke-width: 2 } 
		.s11 { fill: url(#g8);stroke: #997c2d;stroke-width: 2 } 
		.s12 { fill: url(#g9);stroke: #997c2d;stroke-width: 2 } 
		.s13 { fill: url(#g10);stroke: #997c2d;stroke-width: 2 } 
		.s14 { fill: url(#g11);stroke: #997c2d;stroke-width: 2 } 
		.s15 { fill: url(#g12);stroke: #997c2d;stroke-width: 2 } 
		.s16 { fill: url(#g13);stroke: #997c2d;stroke-width: 2 } 
		.s17 { fill: url(#g14);stroke: #997c2d;stroke-width: 2 } 
		.s18 { fill: url(#g15);stroke: #997c2d;stroke-width: 2 } 
		.s19 { fill: url(#g16);stroke: #997c2d;stroke-width: 2 } 
		.s20 { fill: url(#g17);stroke: #997c2d;stroke-width: 2 } 
		.s21 { fill: url(#g18);stroke: #997c2d;stroke-width: 2 } 
		.s22 { fill: url(#g19);stroke: #997c2d;stroke-width: 2 } 
		.s23 { fill: url(#g20);stroke: #997c2d;stroke-width: 2 } 
		.s24 { fill: url(#g21);stroke: #997c2d;stroke-width: 2 } 
		.s25 { fill: url(#g22);stroke: #997c2d;stroke-width: 2 } 
		.s26 { fill: url(#g23);stroke: #997c2d;stroke-width: 2 } 
		.s27 { fill: url(#g24);stroke: #997c2d;stroke-width: 2 } 
		.s28 { fill: url(#g25);stroke: #997c2d;stroke-width: 2 } 
		.s29 { fill: url(#g26);stroke: #997c2d;stroke-width: 2 } 
		.s30 { fill: url(#g27);stroke: #997c2d;stroke-width: 2 } 
		.s31 { fill: url(#g28);stroke: #997c2d;stroke-width: 2 } 
		.s32 { fill: url(#g29);stroke: #997c2d;stroke-width: 2 } 
		.s33 { fill: url(#g30);stroke: #997c2d;stroke-width: 2 } 
		.s34 { fill: none;stroke: #a6a9ab;stroke-linecap: square;stroke-width: 3 } 
		.s35 { fill: none;stroke: #a6a9ab;stroke-width: 3;stroke-dasharray: 5.60812950134277,5.60812950134277,5.60812950134277,5.60812950134277 } 
		.s36 { fill: none;stroke: #a6a9ab;stroke-width: 3;stroke-dasharray: 5.60812950134277,5.60812950134277,5.60812950134277,5.60812950134277,5.60812950134277,5.60812950134277 } 
		.s37 { fill: url(#g31);stroke: #997c2d;stroke-width: 2 } 
		.s38 { fill: url(#g32);stroke: #997c2d;stroke-width: 2 } 
		.s39 { fill: url(#g33);stroke: #997c2d;stroke-width: 2 } 
		.s40 { fill: url(#g34);stroke: #997c2d;stroke-width: 2 } 
		.s41 { fill: none;stroke: #a6a9ab;stroke-width: 3;stroke-dasharray: 4.69955015182495,4.69955015182495,4.69955015182495,4.69955015182495 } 
		.s42 { fill: none;stroke: #a6a9ab;stroke-width: 3;stroke-dasharray: 4.69955015182495,4.69955015182495,4.69955015182495,4.69955015182495,4.69955015182495,4.69955015182495 } 
		.s43 { fill: none;stroke: #a6a9ab;stroke-width: 3;stroke-dasharray: 2.95706295967102,2.95706295967102,2.95706295967102,2.95706295967102 } 
		.s44 { fill: none;stroke: #a6a9ab;stroke-width: 3;stroke-dasharray: 2.95706295967102,2.95706295967102,2.95706295967102,2.95706295967102,2.95706295967102,2.95706295967102 } 
	</style>
	<g id="Layer 1">
		<g id="layer1">
			<path id="path2396" class="s0" d="m196.88 89.93l-10.37-83.18 34.64-0.61 2.43 4.25h32.82l20.66 64.42"/>
			<path id="path3182" class="s1" d="m197.73 88.24l79.93-13.43 22.49-58.94-75.36 3.64z"/>
		</g>
		<text id="dac/
" transform="translate(300.2,48)">
			<tspan x="0" y="0" class="t2">dac/
</tspan>
		</text>
		<text id="aoml/
" transform="translate(379.7,103.7)">
			<tspan x="0" y="0" class="t2">aoml/
</tspan>
		</text>
		<text id="bodc/
" transform="translate(381.3,144)">
			<tspan x="0" y="0" class="t2">bodc/
</tspan>
		</text>
		<g id="layer1 11 ">
			<path id="path2396 11 " class="s3" d="m518.21 190.6l-3.61-28.91 12.05-0.21 0.84 1.47h11.41l7.18 22.4"/>
			<path id="path3182 11 " class="s4" d="m518.51 190.01l27.78-4.66 7.82-20.49-26.2 1.27z"/>
		</g>
		<text id="6900/
" transform="translate(558.5,182.6)">
			<tspan x="0" y="0" class="t2">6900/
</tspan>
		</text>
		<text id="6901254/
" transform="translate(558.3,249)">
			<tspan x="0" y="0" class="t2">6901254/
</tspan>
		</text>
		<text id="6901254_Rtraj.nc " transform="translate(697.5,256.1)">
			<tspan x="0" y="0" class="t2">6901254_Rtraj.nc
</tspan>
		</text>
		<text id="6901254_meta.nc

" transform="translate(698.9,284.2)">
			<tspan x="0" y="0" class="t2">6901254_meta.nc
</tspan>
		</text>
		<text id="6901773_Rtraj.nc " transform="translate(699.5,538.1)">
			<tspan x="0" y="0" class="t2">6</tspan><tspan  y="0" class="t2">9</tspan><tspan  y="0" class="t2">0</tspan><tspan  y="0" class="t2">1</tspan><tspan  y="0" class="t2">7</tspan><tspan  y="0" class="t2">7</tspan><tspan  y="0" class="t2">3</tspan><tspan  y="0" class="t2">_Rtraj.nc
</tspan>
		</text>
		<text id="6901773_meta.nc " transform="translate(700.9,566.2)">
			<tspan x="0" y="0" class="t2">6</tspan><tspan  y="0" class="t2">9</tspan><tspan  y="0" class="t2">0</tspan><tspan  y="0" class="t2">1</tspan><tspan  y="0" class="t2">7</tspan><tspan  y="0" class="t2">7</tspan><tspan  y="0" class="t2">3</tspan><tspan  y="0" class="t2">_meta.nc
</tspan>
		</text>
		<path id="&lt;Path&gt;" fill-rule="evenodd" class="s5" d="m307.67 64.8l-2.04 426.03"/>
		<path id="&lt;Path&gt;" fill-rule="evenodd" class="s6" d="m124.68 9.75h-1"/>
		<path id="&lt;Path&gt;" fill-rule="evenodd" class="s5" d="m306.81 98.3h29.38"/>
		<path id="&lt;Path&gt;" fill-rule="evenodd" class="s5" d="m306.81 142.55h29.6"/>
		<path id="&lt;Path&gt;" fill-rule="evenodd" class="s5" d="m284.01 66.73h24.55"/>
		<path id="&lt;Path&gt;" fill-rule="evenodd" class="s5" d="m488.69 178.2l0.68 30.91"/>
		<path id="&lt;Path&gt;" fill-rule="evenodd" class="s5" d="m461.36 178.88h50.42"/>
		<path id="&lt;Path&gt;" fill-rule="evenodd" class="s5" d="m489.03 243.14h22.33"/>
		<path id="&lt;Path&gt;" fill-rule="evenodd" class="s5" d="m690.83 242.06l1.57 119.01"/>
		<path id="&lt;Path&gt;" fill-rule="evenodd" class="s5" d="m667.17 242.57h24.56"/>
		<path id="&lt;Path&gt;" fill-rule="evenodd" class="s5" d="m692.4 361.07h20.99"/>
		<path id="&lt;Path&gt; copy" fill-rule="evenodd" class="s5" d="m682.83 528.06l1.57 119.01"/>
		<path id="&lt;Path&gt; copy 4" fill-rule="evenodd" class="s5" d="m682.83 551.06l1.57 119.01"/>
		<path id="&lt;Path&gt; copy 2" fill-rule="evenodd" class="s5" d="m660.17 529.57h24.56"/>
		<path id="&lt;Path&gt; copy 3" fill-rule="evenodd" class="s5" d="m682.4 670.07h20.99"/>
		<text id="6901254_prof.nc " transform="translate(696.9,308.9)">
			<tspan x="0" y="0" class="t2">6901254_prof.nc
</tspan>
		</text>
		<text id="6901254_tech.nc

" transform="translate(696.9,337.2)">
			<tspan x="0" y="0" class="t2">6901254_tech.nc
</tspan>
		</text>
		<text id="profiles/" transform="translate(757.1,365.5)">
			<tspan x="0" y="0" class="t2">profi</tspan><tspan  y="0" class="t2">l</tspan><tspan  y="0" class="t2">es/
</tspan>
		</text>
		<text id="6901773_prof.nc " transform="translate(698.9,589.9)">
			<tspan x="0" y="0" class="t2">6</tspan><tspan  y="0" class="t2">9</tspan><tspan  y="0" class="t2">0</tspan><tspan  y="0" class="t2">1</tspan><tspan  y="0" class="t2">7</tspan><tspan  y="0" class="t2">7</tspan><tspan  y="0" class="t2">3</tspan><tspan  y="0" class="t2">_prof.nc
</tspan>
		</text>
		<text id="6901773_Sprof.nc " transform="translate(698.9,616.9)">
			<tspan x="0" y="0" class="t2">6</tspan><tspan  y="0" class="t2">9</tspan><tspan  y="0" class="t2">0</tspan><tspan  y="0" class="t2">1</tspan><tspan  y="0" class="t2">7</tspan><tspan  y="0" class="t2">7</tspan><tspan  y="0" class="t2">3</tspan><tspan  y="0" class="t2">_</tspan><tspan  y="0" class="t2">S</tspan><tspan  y="0" class="t2">prof.nc
</tspan>
		</text>
		<text id="6901773_tech.nc " transform="translate(699.9,645.2)">
			<tspan x="0" y="0" class="t2">6</tspan><tspan  y="0" class="t2">9</tspan><tspan  y="0" class="t2">0</tspan><tspan  y="0" class="t2">1</tspan><tspan  y="0" class="t2">7</tspan><tspan  y="0" class="t2">7</tspan><tspan  y="0" class="t2">3</tspan><tspan  y="0" class="t2">_tech.nc
</tspan>
		</text>
		<text id="profiles/" transform="translate(755.1,675.5)">
			<tspan x="0" y="0" class="t2">profi</tspan><tspan  y="0" class="t2">l</tspan><tspan  y="0" class="t2">es/
</tspan>
		</text>
		<text id="D6901254_001.nc " transform="translate(885.1,370.2)">
			<tspan x="0" y="0" class="t2">D6901254_001.nc
</tspan>
		</text>
		<text id="D6901254_106.nc " transform="translate(888.3,501.8)">
			<tspan x="0" y="0" class="t2">D6901254_106.nc
</tspan>
		</text>
		<text id="D6901773_001.nc " transform="translate(892.1,682.2)">
			<tspan x="0" y="0" class="t2">D6901</tspan><tspan  y="0" class="t2">7</tspan><tspan  y="0" class="t2">7</tspan><tspan  y="0" class="t2">3</tspan><tspan  y="0" class="t2">_001.nc
</tspan>
		</text>
		<text id="BD6901773_001.nc " transform="translate(893.1,705.2)">
			<tspan x="0" y="0" class="t2">B</tspan><tspan  y="0" class="t2">D6901</tspan><tspan  y="0" class="t2">7</tspan><tspan  y="0" class="t2">7</tspan><tspan  y="0" class="t2">3</tspan><tspan  y="0" class="t2">_001.nc
</tspan>
		</text>
		<text id="SD6901773_001.nc " transform="translate(893.1,729.2)">
			<tspan x="0" y="0" class="t2">S</tspan><tspan  y="0" class="t2">D6901</tspan><tspan  y="0" class="t2">7</tspan><tspan  y="0" class="t2">7</tspan><tspan  y="0" class="t2">3</tspan><tspan  y="0" class="t2">_001.nc
</tspan>
		</text>
		<text id="D6901773_295.nc " transform="translate(892.1,763.2)">
			<tspan x="0" y="0" class="t2">D6901</tspan><tspan  y="0" class="t2">7</tspan><tspan  y="0" class="t2">7</tspan><tspan  y="0" class="t2">3</tspan><tspan  y="0" class="t2">_</tspan><tspan  y="0" class="t2">2</tspan><tspan  y="0" class="t2">9</tspan><tspan  y="0" class="t2">5</tspan><tspan  y="0" class="t2">.nc
</tspan>
		</text>
		<text id="BD6901773_295.nc " transform="translate(893.1,786.2)">
			<tspan x="0" y="0" class="t2">B</tspan><tspan  y="0" class="t2">D6901</tspan><tspan  y="0" class="t2">7</tspan><tspan  y="0" class="t2">7</tspan><tspan  y="0" class="t2">3</tspan><tspan  y="0" class="t2">_</tspan><tspan  y="0" class="t2">2</tspan><tspan  y="0" class="t2">9</tspan><tspan  y="0" class="t2">5</tspan><tspan  y="0" class="t2">.nc
</tspan>
		</text>
		<text id="SD6901773_295.nc " transform="translate(893.1,810.2)">
			<tspan x="0" y="0" class="t2">S</tspan><tspan  y="0" class="t2">D6901</tspan><tspan  y="0" class="t2">7</tspan><tspan  y="0" class="t2">7</tspan><tspan  y="0" class="t2">3</tspan><tspan  y="0" class="t2">_</tspan><tspan  y="0" class="t2">2</tspan><tspan  y="0" class="t2">9</tspan><tspan  y="0" class="t2">5</tspan><tspan  y="0" class="t2">.nc
</tspan>
		</text>
		<path id="&lt;Path&gt;" fill-rule="evenodd" class="s7" d="m477.37 215.44l24.01-12.82"/>
		<path id="&lt;Path&gt;" fill-rule="evenodd" class="s7" d="m479.4 221.85l24.01-12.82"/>
		<path id="&lt;Path&gt;" fill-rule="evenodd" class="s6" d="m833.44-11.7h-1"/>
		<g id="layer1 1 ">
			<path id="path2396 1 " class="s8" d="m518.45 257.22l-3.61-28.91 12.04-0.21 0.85 1.47h11.41l7.18 22.4"/>
			<path id="path3182 1 " class="s9" d="m518.74 256.63l27.79-4.66 7.81-20.49-26.19 1.27z"/>
		</g>
		<g id="layer1 2 ">
			<path id="path2396 2 " class="s10" d="m719.8 375.63l-3.6-28.91 12.04-0.21 0.84 1.48h11.41l7.18 22.39"/>
			<path id="path3182 2 " class="s11" d="m720.1 375.04l27.78-4.66 7.82-20.49-26.2 1.27z"/>
			<path id="path2396 2  copy" class="s12" d="m713.8 687.63l-3.6-28.91 12.04-0.21 0.84 1.48h11.41l7.18 22.39"/>
			<path id="path3182 2  copy" class="s13" d="m714.1 687.04l27.78-4.66 7.82-20.49-26.2 1.27z"/>
		</g>
		<g id="layer1 3 ">
			<path id="path2396 3 " class="s14" d="m340.9 112.86l-3.6-28.92 12.04-0.21 0.84 1.48h11.41l7.18 22.39"/>
			<path id="path3182 3 " class="s15" d="m341.2 112.27l27.78-4.67 7.82-20.49-26.2 1.27z"/>
		</g>
		<g id="layer1 4 ">
			<path id="path2396 4 " class="s16" d="m341.43 154.79l-3.6-28.91 12.04-0.21 0.84 1.48h11.41l7.18 22.39"/>
			<path id="path3182 4 " class="s17" d="m341.73 154.2l27.78-4.66 7.82-20.49-26.19 1.27z"/>
		</g>
		<path id="&lt;Path&gt;" fill-rule="evenodd" class="s5" d="m306.57 179.73h30.41"/>
		<path id="&lt;Path&gt;" fill-rule="evenodd" class="s5" d="m307.98 215.56h27.58"/>
		<g id="layer1 17 ">
			<path id="path2396 17 " class="s18" d="m340.89 194.3l-3.6-28.92 12.04-0.21 0.84 1.48h11.41l7.18 22.39"/>
			<path id="path3182 17 " class="s19" d="m341.19 193.71l27.78-4.67 7.82-20.49-26.2 1.27z"/>
		</g>
		<g id="layer1 16 ">
			<path id="path2396 16 " class="s20" d="m340.89 233.31l-3.6-28.91 12.04-0.21 0.84 1.48h11.41l7.18 22.39"/>
			<path id="path3182 16 " class="s21" d="m341.19 232.73l27.78-4.67 7.82-20.49-26.2 1.27z"/>
		</g>
		<path id="&lt;Path&gt;" fill-rule="evenodd" class="s5" d="m308.23 259.63h27.58"/>
		<path id="&lt;Path&gt;" fill-rule="evenodd" class="s5" d="m308.54 301.05h27.58"/>
		<g id="layer1 21 ">
			<path id="path2396 21 " class="s22" d="m341.21 274.19l-3.6-28.91 12.04-0.21 0.84 1.48h11.41l7.18 22.39"/>
			<path id="path3182 21 " class="s23" d="m341.51 273.61l27.78-4.67 7.82-20.49-26.2 1.27z"/>
		</g>
		<g id="layer1 20 ">
			<path id="path2396 20 " class="s24" d="m340.59 312.15l-3.6-28.91 12.04-0.21 0.84 1.48h11.41l7.18 22.39"/>
			<path id="path3182 20 " class="s25" d="m340.89 311.57l27.78-4.67 7.82-20.49-26.19 1.27z"/>
		</g>
		<path id="&lt;Path&gt;" fill-rule="evenodd" class="s5" d="m308.96 337.39h27.58"/>
		<path id="&lt;Path&gt;" fill-rule="evenodd" class="s5" d="m307.98 376.56h27.58"/>
		<g id="layer1 19 ">
			<path id="path2396 19 " class="s26" d="m341.43 351.95l-3.6-28.91 12.04-0.21 0.84 1.48h11.41l7.18 22.39"/>
			<path id="path3182 19 " class="s27" d="m341.73 351.37l27.78-4.67 7.82-20.49-26.19 1.27z"/>
		</g>
		<g id="layer1 18 ">
			<path id="path2396 18 " class="s28" d="m340.42 391.75l-3.6-28.91 12.04-0.21 0.84 1.48h11.41l7.18 22.39"/>
			<path id="path3182 18 " class="s29" d="m340.72 391.17l27.78-4.67 7.82-20.49-26.2 1.27z"/>
		</g>
		<path id="&lt;Path&gt;" fill-rule="evenodd" class="s5" d="m308.03 416.99h27.58"/>
		<path id="&lt;Path&gt;" fill-rule="evenodd" class="s5" d="m307.06 456.16h27.58"/>
		<g id="layer1 23 ">
			<path id="path2396 23 " class="s30" d="m340.51 431.55l-3.61-28.91 12.04-0.21 0.85 1.48h11.41l7.18 22.39"/>
			<path id="path3182 23 " class="s31" d="m340.81 430.97l27.78-4.67 7.82-20.49-26.2 1.27z"/>
		</g>
		<g id="layer1 22 ">
			<path id="path2396 22 " class="s32" d="m339.5 471.36l-3.61-28.92 12.04-0.21 0.85 1.48h11.4l7.18 22.39"/>
			<path id="path3182 22 " class="s33" d="m339.79 470.77l27.79-4.67 7.81-20.49-26.19 1.27z"/>
		</g>
		<path id="&lt;Path&gt;" fill-rule="evenodd" class="s5" d="m872.26 360.66v72.38"/>
		<path id="&lt;Path&gt;" fill-rule="evenodd" class="s5" d="m849.13 360.8h27.98"/>
		<path id="&lt;Path&gt;" fill-rule="evenodd" class="s7" d="m861.68 444.66l24.01-12.83"/>
		<path id="&lt;Path&gt;" fill-rule="evenodd" class="s34" d="m872.26 440.39v52.93"/>
		<path id="&lt;Path&gt;" fill-rule="evenodd" class="s7" d="m861.68 438.13l24.01-12.82"/>
		<path id="&lt;Path&gt; copy 6" fill-rule="evenodd" class="s5" d="m874.26 670.66v72.38"/>
		<path id="&lt;Path&gt; copy 7" fill-rule="evenodd" class="s5" d="m851.13 670.8h27.98"/>
		<path id="&lt;Path&gt; copy 8" fill-rule="evenodd" class="s7" d="m863.68 754.66l24.01-12.83"/>
		<path id="&lt;Path&gt; copy 9" fill-rule="evenodd" class="s34" d="m874.26 750.39v52.93"/>
		<path id="&lt;Path&gt; copy 10" fill-rule="evenodd" class="s7" d="m863.68 748.13l24.01-12.82"/>
		<g id="&lt;Group&gt;">
			<g id="&lt;Group&gt;">
				<path id="&lt;Path&gt;" fill-rule="evenodd" class="s5" d="m922.19 380.06v2.5"/>
				<path id="&lt;Path&gt;" fill-rule="evenodd" class="s35" d="m922.19 388.16v19.63"/>
				<path id="&lt;Path&gt;" fill-rule="evenodd" class="s36" d="m922.19 410.6v64.49"/>
				<path id="&lt;Path&gt;" fill-rule="evenodd" class="s5" d="m922.19 477.89v2.51"/>
			</g>
		</g>
		<text id="coriolis/
" transform="translate(381.3,182.6)">
			<tspan x="0" y="0" class="t2">coriolis/
</tspan>
		</text>
		<text id="csio/
" transform="translate(380.5,220.2)">
			<tspan x="0" y="0" class="t2">csio/
</tspan>
		</text>
		<text id="csiro/
" transform="translate(382.2,260.4)">
			<tspan x="0" y="0" class="t2">csiro/
</tspan>
		</text>
		<text id="incois/
" transform="translate(382.2,299.1)">
			<tspan x="0" y="0" class="t2">incois/
</tspan>
		</text>
		<text id="jma/
" transform="translate(382.2,344.2)">
			<tspan x="0" y="0" class="t2">jma/
</tspan>
		</text>
		<text id="kma/
" transform="translate(381.3,381.8)">
			<tspan x="0" y="0" class="t2">kma/
</tspan>
		</text>
		<text id="kiost/" transform="translate(383,422)">
			<tspan x="0" y="0" class="t2">k</tspan><tspan  y="0" class="t2">i</tspan><tspan  y="0" class="t2">o</tspan><tspan  y="0" class="t2">s</tspan><tspan  y="0" class="t2">t</tspan><tspan  y="0" class="t2">/
</tspan>
		</text>
		<text id="meds/
" transform="translate(383,460.7)">
			<tspan x="0" y="0" class="t2">meds/
</tspan>
		</text>
		<text id="nmdis/
" transform="translate(381.3,495.3)">
			<tspan x="0" y="0" class="t2">nmdis/
</tspan>
		</text>
		<path id="&lt;Path&gt;" fill-rule="evenodd" class="s5" d="m305.62 490.83h27.58"/>
		<g id="layer1 24 ">
			<path id="path2396 24 " class="s37" d="m338.06 506.02l-3.6-28.91 12.04-0.21 0.84 1.47h11.41l7.18 22.4"/>
			<path id="path3182 24 " class="s38" d="m338.36 505.43l27.78-4.66 7.82-20.49-26.19 1.26z"/>
		</g>
		<text id="6901773/" transform="translate(554.5,535.9)">
			<tspan x="0" y="0" class="t2">6</tspan><tspan  y="0" class="t2">9</tspan><tspan  y="0" class="t2">0</tspan><tspan  y="0" class="t2">1</tspan><tspan  y="0" class="t2">7</tspan><tspan  y="0" class="t2">7</tspan><tspan  y="0" class="t2">3</tspan><tspan  y="0" class="t2">/
</tspan>
		</text>
		<g id="layer1 25 ">
			<path id="path2396 25 " class="s39" d="m518.14 544.17l-3.61-28.91 12.04-0.21 0.85 1.48h11.41l7.18 22.39"/>
			<path id="path3182 25 " class="s40" d="m518.43 543.59l27.79-4.67 7.81-20.49-26.19 1.27z"/>
		</g>
		<path id="&lt;Path&gt;" fill-rule="evenodd" class="s34" d="m489.16 280.9l-0.13 163.33"/>
		<path id="&lt;Path&gt; copy 5" fill-rule="evenodd" class="s34" d="m489.16 363.9l-0.13 163.33"/>
		<path id="&lt;Path&gt;" fill-rule="evenodd" class="s34" d="m489.03 527.23h22.33"/>
		<path id="&lt;Path&gt;" fill-rule="evenodd" class="s7" d="m477.81 278.57l24.01-12.82"/>
		<path id="&lt;Path&gt;" fill-rule="evenodd" class="s7" d="m479.84 284.98l24.01-12.82"/>
		<path id="&lt;Path&gt;" fill-rule="evenodd" class="s5" d="m489.37 216.53v55.63"/>
		<path id="&lt;Path&gt;" fill-rule="evenodd" class="s34" d="m872.26 495.32h7.05"/>
		<path id="&lt;Path&gt; copy 11" fill-rule="evenodd" class="s34" d="m875.26 804.32h7.05"/>
		<g id="&lt;Group&gt;">
			<g id="&lt;Group&gt;">
				<path id="&lt;Path&gt;" fill-rule="evenodd" class="s5" d="m596.63 260.74v2.5"/>
				<path id="&lt;Path&gt;" fill-rule="evenodd" class="s41" d="m596.63 267.94v16.45"/>
				<path id="&lt;Path&gt;" fill-rule="evenodd" class="s42" d="m596.63 286.74v138.64"/>
				<path id="&lt;Path&gt; copy 12" fill-rule="evenodd" class="s42" d="m596.63 371.74v138.64"/>
				<path id="&lt;Path&gt;" fill-rule="evenodd" class="s5" d="m596.63 427.73v2.5"/>
			</g>
		</g>
		<g id="&lt;Group&gt;">
			<g id="&lt;Group&gt;">
				<path id="&lt;Path&gt;" fill-rule="evenodd" class="s5" d="m596.63 187.42v2.5"/>
				<path id="&lt;Path&gt;" fill-rule="evenodd" class="s43" d="m596.63 192.87v10.35"/>
				<path id="&lt;Path&gt;" fill-rule="evenodd" class="s44" d="m596.63 204.7v16.27"/>
				<path id="&lt;Path&gt;" fill-rule="evenodd" class="s5" d="m596.63 222.44v2.5"/>
			</g>
		</g>
	</g>
</svg>